<svg xmlns="http://www.w3.org/2000/svg" width="899.65" height="481.681" viewBox="0 0 899.65 481.681">
  <defs>
    <style>
      .cls-1 {
        fill: #0a7064;
      }

      .cls-2 {
        fill: #fff;
      }

      .cls-3, .cls-4 {
        stroke: none;
      }

      .cls-4 {
        fill: #0a7064;
      }
    </style>
  </defs>
  <g id="Group_3" data-name="Group 3" transform="translate(-816 -265.319)">
    <path id="Path_1" data-name="Path 1" class="cls-1" d="M52.06,4.319h326L326,144H0Z" transform="translate(942 261)"/>
    <path id="Union_3" data-name="Union 3" class="cls-1" d="M-1760.886,242.208-1847.8,473.537H-1990l89.328-261.317,219.139-200.652L-1669.964,0h197.748L-1647.31,137.776l124.729,335.467-149.06,1.454Z" transform="translate(3187.866 265.32)"/>
    <g id="Union_1" data-name="Union 1" class="cls-2" transform="translate(2806 427.234)">
      <path class="cls-3" d="M -1665.041870117188 318.2664184570312 L -1987.840087890625 318.2664184570312 L -1936.897705078125 181.5855102539062 L -1936.441284179688 181.5855102539062 L -1936.08203125 180.5985565185547 L -1875.890991210938 15.22445964813232 L -1870.950561523438 1.513509273529053 L -1666.520263671875 1.513509273529053 L -1715.435180664062 137.2665100097656 L -1775.400390625 137.2665100097656 L -1776.414306640625 137.2665100097656 L -1776.792236328125 138.2072601318359 L -1793.395263671875 179.5262603759766 L -1794.22265625 181.5855102539062 L -1792.00341796875 181.5855102539062 L -1614.099609375 181.5855102539062 L -1665.041870117188 318.2664184570312 Z"/>
      <path class="cls-4" d="M -1666.083618164062 316.7664184570312 L -1616.259399414062 183.0855102539062 L -1796.442016601562 183.0855102539062 L -1777.428100585938 135.7665100097656 L -1716.489013671875 135.7665100097656 L -1668.655151367188 3.013509273529053 L -1869.896728515625 3.013509273529053 L -1874.4814453125 15.73745918273926 L -1935.390869140625 183.0855102539062 L -1935.85595703125 183.0855102539062 L -1985.680297851562 316.7664184570312 L -1666.083618164062 316.7664184570312 M -1664.000122070312 319.7664184570312 L -1990 319.7664184570312 L -1937.939453125 180.0855102539062 L -1937.491577148438 180.0855102539062 L -1877.300537109375 14.71140956878662 L -1872.004516601562 0.01350922882556915 L -1871.950927734375 0.01350922882556915 L -1871.946044921875 9.228515409631655e-06 L -1871.93017578125 0.01350922882556915 L -1664.385375976562 0.01350922882556915 L -1714.381225585938 138.7665100097656 L -1775.400390625 138.7665100097656 L -1792.00341796875 180.0855102539062 L -1611.939697265625 180.0855102539062 L -1664.000122070312 319.7664184570312 Z"/>
    </g>
  </g>
</svg>
